
        <svg xmlns="http://www.w3.org/2000/svg" xmlns:xlink="http://www.w3.org/1999/xlink" version="1.1" width="3149.7077882280755" 
        height="733.5681623175703" viewBox="0 0 3149.7077882280755 733.5681623175703">
			
			<g transform="scale(7.485389411403779) translate(10, 10)">
				<defs id="SvgjsDefs13023"></defs><g id="SvgjsG13024" featureKey="symbolGroupContainer" transform="matrix(1,0,0,1,0,0)" fill="#eeeeee"><rect width="95" height="78" rx="8"></rect></g><g id="SvgjsG13025" featureKey="symbolFeature-0" transform="matrix(0.6880064707365967,0,0,0.6880064707365967,16.905346794894406,8.234144618731802)" fill="#222831"><g xmlns="http://www.w3.org/2000/svg"><polygon points="85.017,79.158 44.758,9.834 14.727,61.543 25.104,61.543 44.757,27.708 69.516,70.336 32.879,70.336    32.879,70.366 9.604,70.366 4.498,79.158  "></polygon></g></g><g id="SvgjsG13026" featureKey="sloganFeature-0" transform="matrix(1.0651334130015535,0,0,1.0651334130015535,114.65915728371448,46.269582624051985)" fill="#eeeeee"><path d="M0.32 5.619999999999999 q0.72 -0.12 1.64 -0.12 q0.36 0 0.73 0.02 t0.73 0.1 l2.06 10.82 l2.48 -10.82 q0.4 -0.06 0.74 -0.09 t0.7 -0.03 q0.6 0 1.3 0.12 l2.58 11.1 l2.06 -11.1 q0.62 -0.12 1.28 -0.12 q0.4 0 0.78 0.04 l0.74 0.08 l-3.46 14.38 q-0.72 0.12 -1.49 0.12 t-1.67 -0.12 l-2.3 -9.58 l-2.48 9.58 l-0.84 0.08 q-0.38 0.04 -0.82 0.04 q-0.62 0 -1.34 -0.12 z M19.82 5.619999999999999 l8.16 0 q0.12 0.6 0.12 1.24 t-0.12 1.24 l-5.24 0 l0 3.12 l4.16 0 q0.12 0.64 0.12 1.26 t-0.12 1.24 l-4.16 0 l0 3.8 l5.38 0 q0.12 0.6 0.12 1.24 t-0.12 1.24 l-8.3 0 l0 -14.38 z M30.480000000000004 5.6 q0.64 -0.1 1.48 -0.16 t2.1 -0.06 q1.1 0 2.08 0.18 t1.71 0.61 t1.15 1.15 t0.42 1.8 q0 0.64 -0.19 1.19 t-0.51 0.96 t-0.72 0.68 t-0.82 0.33 q0.46 0.06 1.02 0.28 t1.04 0.65 t0.8 1.11 t0.32 1.64 q0 1.3 -0.49 2.13 t-1.32 1.31 t-1.92 0.66 t-2.29 0.18 q-0.92 0 -1.82 -0.05 t-2.04 -0.19 l0 -14.4 z M33.38 17.8 q0.28 0.04 0.65 0.06 t0.67 0.02 q0.42 0 0.88 -0.08 t0.86 -0.31 t0.66 -0.64 t0.26 -1.05 t-0.2 -1.05 t-0.57 -0.66 t-0.88 -0.35 t-1.13 -0.1 l-1.2 0 l0 4.16 z M34.260000000000005 11.44 q0.5 0 0.93 -0.09 t0.75 -0.32 t0.5 -0.62 t0.18 -0.98 t-0.21 -0.96 t-0.54 -0.58 t-0.74 -0.28 t-0.81 -0.07 q-0.56 0 -0.94 0.06 l0 3.84 l0.88 0 z M47 5.619999999999999 q0.84 -0.1 1.76 -0.17 t2.04 -0.07 q3.78 0 5.75 1.88 t1.97 5.65 t-2 5.55 t-5.94 1.78 q-1.02 0 -1.88 -0.07 t-1.7 -0.17 l0 -14.38 z M49.94 17.68 q0.18 0.02 0.46 0.04 t0.68 0.02 q0.92 0 1.71 -0.21 t1.37 -0.77 t0.92 -1.5 t0.34 -2.4 t-0.34 -2.42 t-0.92 -1.52 t-1.33 -0.79 t-1.59 -0.23 l-0.64 0 q-0.38 0.02 -0.66 0.06 l0 9.72 z M60.94 5.619999999999999 l8.16 0 q0.12 0.6 0.12 1.24 t-0.12 1.24 l-5.24 0 l0 3.12 l4.16 0 q0.12 0.64 0.12 1.26 t-0.12 1.24 l-4.16 0 l0 3.8 l5.38 0 q0.12 0.6 0.12 1.24 t-0.12 1.24 l-8.3 0 l0 -14.38 z M70.36 5.619999999999999 q0.34 -0.04 0.78 -0.08 t0.78 -0.04 q0.76 0 1.6 0.12 l3.14 11.34 l3.18 -11.34 q0.4 -0.06 0.77 -0.08 t0.74 -0.02 t0.74 0.02 t0.77 0.08 l-4.64 14.38 q-0.42 0.06 -0.81 0.09 t-0.81 0.03 t-0.8 -0.03 t-0.84 -0.09 z M84.46000000000001 5.619999999999999 l8.16 0 q0.12 0.6 0.12 1.24 t-0.12 1.24 l-5.24 0 l0 3.12 l4.16 0 q0.12 0.64 0.12 1.26 t-0.12 1.24 l-4.16 0 l0 3.8 l5.38 0 q0.12 0.6 0.12 1.24 t-0.12 1.24 l-8.3 0 l0 -14.38 z M95.08000000000001 5.619999999999999 q0.74 -0.12 1.43 -0.12 t1.45 0.12 l0 11.86 l4.98 0 q0.06 0.34 0.08 0.65 t0.02 0.61 t-0.02 0.61 t-0.08 0.65 l-7.86 0 l0 -14.38 z M110.80000000000001 20.24 q-1.62 0 -2.8 -0.56 t-1.94 -1.55 t-1.13 -2.34 t-0.37 -2.95 t0.37 -2.97 t1.13 -2.37 t1.94 -1.56 t2.8 -0.56 t2.8 0.56 t1.94 1.56 t1.13 2.37 t0.37 2.97 t-0.37 2.95 t-1.13 2.34 t-1.94 1.55 t-2.8 0.56 z M110.80000000000001 17.8 q3.1 0 3.1 -4.96 q0 -2.48 -0.75 -3.72 t-2.33 -1.24 q-3.14 0 -3.14 4.96 t3.12 4.96 z M119.46000000000001 5.5600000000000005 q0.92 -0.08 1.86 -0.13 t1.92 -0.05 t2.01 0.2 t1.86 0.75 t1.35 1.53 t0.52 2.54 t-0.52 2.53 t-1.34 1.53 t-1.83 0.76 t-1.99 0.2 l-0.48 -0.02 q-0.24 0 -0.44 -0.02 l0 4.62 q-0.38 0.06 -0.74 0.08 t-0.69 0.02 t-0.71 -0.02 t-0.78 -0.08 l0 -14.44 z M122.38 12.96 q0.24 0.04 0.46 0.04 l0.5 0 q0.5 0 0.98 -0.13 t0.85 -0.43 t0.59 -0.79 t0.22 -1.22 t-0.22 -1.24 t-0.59 -0.82 t-0.85 -0.44 t-0.98 -0.13 l-0.4 0 q-0.2 0.02 -0.56 0.06 l0 5.1 z M131.12 5.619999999999999 l8.16 0 q0.12 0.6 0.12 1.24 t-0.12 1.24 l-5.24 0 l0 3.12 l4.16 0 q0.12 0.64 0.12 1.26 t-0.12 1.24 l-4.16 0 l0 3.8 l5.38 0 q0.12 0.6 0.12 1.24 t-0.12 1.24 l-8.3 0 l0 -14.38 z M141.88 5.619999999999999 q0.88 -0.1 1.65 -0.17 t1.71 -0.07 q1.1 0 2.17 0.2 t1.93 0.71 t1.39 1.38 t0.53 2.21 q0 0.8 -0.2 1.41 t-0.51 1.07 t-0.67 0.79 t-0.68 0.53 l-0.34 0.22 l3.5 6.08 l-0.84 0.08 q-0.44 0.04 -0.9 0.04 q-0.76 0 -1.5 -0.12 l-3.76 -6.68 l0.48 -0.24 q0.28 -0.14 0.68 -0.36 t0.77 -0.55 t0.63 -0.8 t0.26 -1.11 q0 -1.26 -0.72 -1.85 t-1.86 -0.59 q-0.44 0 -0.8 0.06 l0 12.14 l-0.72 0.06 q-0.36 0.04 -0.7 0.04 t-0.72 -0.02 t-0.78 -0.08 l0 -14.38 z"></path></g><g id="SvgjsG13027" featureKey="nameLeftFeature-0" transform="matrix(1.0551920769793175,0,0,1.0551920769793175,112.87822416998792,-0.5519167445548447)" fill="#eeeeee"><path d="M7.44 32.76 c0 -1.4 -0.2 -5.2 -0.16 -6 c0 -0.12 0.08 -0.28 0.12 -0.28 c0.08 0 0.24 0.08 0.28 0.12 c1.28 1.68 7.28 13.32 8 13.36 c0.2 0.04 0.4 0.04 0.6 0.04 c1.36 -0.08 2.56 0 3.92 0 c1.4 0 0.48 -1.36 0.24 -1.72 c-0.36 -0.52 -5.12 -9.04 -5.4 -9.56 c-0.8 -1.36 -1.48 -2.84 -2.28 -4.16 c-0.08 -0.16 -0.16 -0.4 -0.12 -0.56 c0.08 -0.48 0.2 -0.92 0.4 -1.36 c0.96 -1.88 1.96 -3.8 3.12 -5.6 c1.28 -2.04 2 -3.32 3.04 -5.16 c0.24 -0.44 0.4 -0.92 0.56 -1.44 c0.04 -0.2 -0.12 -0.4 -0.36 -0.4 c-0.76 -0.04 -3.52 0 -4.4 0 c-0.4 0 -0.8 0.08 -1 0.44 c-0.52 1 -5.88 10.8 -6.4 11.68 c-0.04 0.08 -0.16 0.12 -0.28 0.12 c0 0 -0.08 -0.12 -0.08 -0.2 c-0.04 -2.24 0.36 -9.56 0.28 -11.04 c-0.04 -0.88 -0.2 -0.96 -1.08 -1 c-0.96 -0.04 -2.28 -0.04 -3.24 -0.04 c-0.88 0 -0.96 0.48 -1.08 1.12 c-0.04 0.12 -0.04 3.88 -0.04 5.56 c0 2.44 -0.2 17.72 0.08 22.56 c0 0.48 0.12 0.76 0.52 0.76 c1.08 -0.08 2.68 0 3.76 0 c0.76 0 0.88 -0.08 0.88 -1.36 c0 -1.72 0.16 -3.28 0.16 -5.4 c0 -0.16 -0.04 -0.32 -0.04 -0.48 z"></path></g><g id="SvgjsG13028" featureKey="inlineSymbolFeature-0" transform="matrix(0.3956970791827232,0,0,0.3956970791827232,136.04302920817275,6.043029208172769)" fill="#eeeeee"><path xmlns="http://www.w3.org/2000/svg" d="M50,10L10,90h80L50,10z M50,24.909L72.546,70H42.36l3.333-6.667h16.064L50,39.814L31.575,76.667h44.304l3.333,6.666H20.788  L50,24.909z"></path></g><g id="SvgjsG13029" featureKey="nameRightFeature-0" transform="matrix(1.0454345323891159,0,0,1.0454345323891159,174.91663825119082,-0.2034372873824939)" fill="#eeeeee"><path d="M7.8 10.04 c-0.4 0 -0.8 0.04 -1.2 0.04 c-0.6 0 -1.32 -0.12 -1.44 0.68 c-0.4 3.4 -0.76 7.16 -1.16 10.56 c-0.68 5.6 -1.32 11.36 -1.96 16.96 c-0.08 0.76 -0.16 1.48 0.68 1.64 c1.28 0.08 2.24 0.08 3.32 0.04 c0.4 0.04 0.84 0.08 0.96 -0.4 c0.08 -0.2 0.08 -0.4 0.08 -0.6 c0.08 -0.92 1.28 -12.44 1.76 -12.44 c0.76 0 2.76 9.36 3.72 12.8 c0.12 0.48 0.36 0.68 0.84 0.64 c1 -0.08 1.96 0 2.96 0 s0.8 -0.64 1 -1.48 c0.24 -0.92 2.56 -12 3.12 -12 c0.64 0 1.96 12.84 2.08 13.12 c0.24 0.56 0.92 0.32 1.4 0.32 c0.72 0 1.4 0.08 2.32 0 c0.68 -0.08 1.36 0.16 1.4 -0.72 c0 -0.2 -0.08 -0.4 -0.12 -0.6 c-0.16 -1 -0.36 -2.2 -0.56 -3.2 c-0.28 -2.08 -0.68 -4.12 -0.96 -6.2 c-0.4 -3.28 -0.8 -6.56 -1.16 -9.84 c-0.28 -2.8 -0.68 -5.96 -0.92 -8.76 c-0.08 -0.92 -1.12 -0.6 -1.76 -0.6 l-2.76 0 c-0.44 0 -0.64 0.84 -0.72 1.28 c-0.24 1.12 -3 15.56 -3.92 15.56 s-3.88 -13.2 -4.4 -16.08 c-0.12 -0.64 -0.56 -0.84 -1.16 -0.84 z M31.72 31.8 l-0.04 0 c0 1 -0.04 2.04 0 3.08 c0.04 1.28 0.12 2.56 0.2 3.84 c0 0.44 0.12 0.56 0.52 0.64 c0.84 0.2 1.64 0.24 2.48 0.24 c2.16 -0.08 4.32 0.08 6.48 0 c0.88 -0.04 1.28 0.04 2.16 -0.12 c0.8 -0.16 1.08 -0.6 1.08 -1.8 c-0.08 -0.76 -0.04 -1.08 -0.04 -2 c0 -1.32 -0.92 -1.76 -1.72 -1.72 c-0.56 0.04 -3.24 -0.04 -4.32 -0.04 c-1.8 0.04 -1.52 0.28 -1.52 -1.6 c0 -1.52 0.04 -3.48 0.04 -5.04 c0 -0.84 0.08 -1.12 0.88 -1.12 l5 0 c0.8 0.12 1.36 -0.44 1.36 -1.28 s0.08 -0.88 0.08 -1.72 l-0.12 -1.2 c-0.08 -0.68 -0.32 -0.92 -1 -0.92 c-0.44 0 -0.88 0.04 -1.32 0.08 c-1.72 0.12 -2.52 -0.12 -4.2 0 c-0.56 0 -0.64 -0.08 -0.68 -0.6 c-0.16 -1.56 0 -3.28 0.16 -4.84 c0.04 -0.64 0.2 -0.76 0.8 -0.8 l5.64 -0.04 c0.76 -0.08 1 -0.04 0.96 -0.8 c-0.08 -1.16 0.04 -2.36 -0.08 -3.52 c-0.08 -0.64 -0.28 -0.76 -1 -0.76 c-1.2 0.04 -1.48 0.04 -2.68 0.12 c-1.2 0.04 -6 0.04 -7.16 0.04 c-1.68 0 -1.8 -0.12 -1.84 1.92 c-0.08 1.6 -0.04 3.24 -0.04 4.88 c0 2.8 -0.16 12.84 -0.08 15.08 z M65.64 10.920000000000002 c0.12 0.56 0.04 27.2 0.04 27.88 c0 1.2 -0.44 1.16 -1.24 1.16 c-1.2 0 -2.88 0.2 -3.24 -0.2 c-0.32 -0.28 -6.24 -14.56 -7.08 -16.36 c-0.08 -0.16 -0.28 -0.56 -0.44 -0.48 c-0.2 0.08 -0.12 0.36 -0.12 0.52 c-0.04 1.4 0.2 13.48 0.2 15.4 c0 0.96 -0.04 1.12 -0.84 1.12 l-2 0 c-0.52 0 -1.16 -0.04 -1.68 0.04 c-0.4 0 -0.6 -0.12 -0.64 -0.52 l0 -3.16 c0.08 -3.36 0 -23.28 0 -24.76 c0 -1.28 0.36 -1.52 1.64 -1.52 c0.88 -0.04 1.76 -0.04 2.64 -0.04 c0.28 0 0.44 0.04 0.6 0.4 c1.08 2.52 5.68 14.08 6.4 15.48 c0.12 0.28 0.56 1.4 0.8 1.52 l0.04 0 c0.16 -0.16 0.12 -0.96 0.12 -1.2 c0 -0.6 -0.32 -14.64 -0.32 -14.92 c0 -0.4 -0.12 -0.76 0.08 -1.04 c0.12 -0.16 0.64 -0.2 0.84 -0.24 c1.12 -0.08 2.44 0.04 3.56 0 c0.56 0 0.52 0.4 0.64 0.92 z M84.67999999999999 37 c0 -1.04 0 -7.6 0.04 -8.12 c0.04 -0.12 0.12 -0.36 0.28 -0.36 s0.24 0.08 0.28 0.2 c1.6 3.12 3 6.24 4.44 9.28 c0.2 0.44 0.64 1.72 0.76 1.84 c0.16 0.24 0.44 0.16 0.68 0.16 l4.4 0.04 c0.52 0 0.64 -0.32 0.52 -0.76 c-0.32 -1.2 -2.6 -5.44 -3.12 -6.48 c-0.36 -0.8 -2.76 -5.44 -2.84 -5.8 c-0.08 -0.16 0.52 -0.44 0.6 -0.56 c1.92 -1.72 3.64 -3.48 4 -6.16 c0.4 -2.64 -0.2 -5.52 -1.92 -7.64 c-1.32 -1.56 -3.04 -2.48 -5.08 -2.6 c-1.24 -0.08 -2.44 0.04 -3.68 0 c-1.08 -0.04 -1.84 -0.04 -3.2 -0.04 c-0.64 0 -1.04 0.36 -1.08 1.04 l0 0.48 c-0.08 3.08 0 6.16 0.04 9.2 c0 4.64 -0.08 16.88 -0.08 18.64 c0 0.52 0.08 0.64 0.56 0.64 c0.28 0 0.6 0.04 0.88 0.04 c1.12 0 1.8 -0.04 2.96 -0.04 c0.88 0 0.56 -1.44 0.56 -3 z M84.67999999999999 21.4 l0.04 -4.04 c0.04 -0.6 -0.16 -1.8 0.4 -2.24 c0.76 -0.56 2.32 0 3 0.48 c2 1.36 1.84 4.72 0.76 6.6 c-0.52 0.88 -1.4 1.4 -2.4 1.68 c-0.6 0.16 -1.72 0.36 -1.76 -0.6 c0 -0.64 -0.04 -1.88 -0.04 -1.88 z M103.80000000000001 39.68 c0.12 0.04 0.48 0.04 0.84 0.04 c0.8 0 1.04 -2.88 1.12 -3.48 c0.04 -0.48 0.16 -0.52 0.56 -0.6 c2 -0.24 3 -0.08 5 -0.04 c0.44 0 0.68 0.2 0.8 0.56 l0.28 0.92 c0.24 0.68 0.44 1.52 0.68 2.2 c0.16 0.48 0.2 0.44 0.68 0.44 c0.64 0 2.96 0 3.64 -0.04 c0.92 0 0.28 -1.88 0.16 -2.2 c-0.36 -1.12 -0.44 -2.28 -0.8 -3.4 c-0.16 -0.48 -4.72 -22.12 -4.92 -23.32 c-0.28 -0.72 -0.04 -0.76 -0.68 -0.76 c-1.36 0 -2.8 0.08 -4.2 0 c-0.56 0 -0.52 0.16 -0.6 0.76 c-0.08 0.56 -1.52 6.92 -2.08 9.56 c-0.72 3.32 -1.36 6.52 -2.16 9.8 c-0.28 1.16 -2.2 9.52 -1.96 9.56 c0.12 0.08 0.32 0.04 0.48 0.04 c1 0 1.92 0 3.16 -0.04 z M109.04 30.6 l-0.84 0 c-1.12 0 -1.16 0 -0.88 -1.16 c0.2 -0.88 1.28 -5.64 1.52 -6.8 c0.04 -0.08 0.12 -0.16 0.16 -0.16 c0.08 0 0.16 0.08 0.2 0.12 c0.16 0.48 0.32 1.68 0.48 2.16 c0.36 1.52 0.6 2.8 0.96 4.44 c0.36 1.44 0.2 1.44 -0.52 1.44 c-0.36 0 -0.72 -0.04 -1.08 -0.04 z M138.92000000000002 10.920000000000002 c0.12 0.56 0.04 27.2 0.04 27.88 c0 1.2 -0.44 1.16 -1.24 1.16 c-1.2 0 -2.88 0.2 -3.24 -0.2 c-0.32 -0.28 -6.24 -14.56 -7.08 -16.36 c-0.08 -0.16 -0.28 -0.56 -0.44 -0.48 c-0.2 0.08 -0.12 0.36 -0.12 0.52 c-0.04 1.4 0.2 13.48 0.2 15.4 c0 0.96 -0.04 1.12 -0.84 1.12 l-2 0 c-0.52 0 -1.16 -0.04 -1.68 0.04 c-0.4 0 -0.6 -0.12 -0.64 -0.52 l0 -3.16 c0.08 -3.36 0 -23.28 0 -24.76 c0 -1.28 0.36 -1.52 1.64 -1.52 c0.88 -0.04 1.76 -0.04 2.64 -0.04 c0.28 0 0.44 0.04 0.6 0.4 c1.08 2.52 5.68 14.08 6.4 15.48 c0.12 0.28 0.56 1.4 0.8 1.52 l0.04 0 c0.16 -0.16 0.12 -0.96 0.12 -1.2 c0 -0.6 -0.32 -14.64 -0.32 -14.92 c0 -0.4 -0.12 -0.76 0.08 -1.04 c0.12 -0.16 0.64 -0.2 0.84 -0.24 c1.12 -0.08 2.44 0.04 3.56 0 c0.56 0 0.52 0.4 0.64 0.92 z M159.84 32.64 c0.24 -0.52 0.44 -1.04 0.64 -1.56 c0.44 -1.28 0.52 -2.6 0.64 -3.92 c0.24 -2.8 0.16 -5.64 -0.56 -8.36 c-0.88 -3.48 -3.12 -6.68 -6.48 -8.16 c-1.52 -0.68 -3.24 -0.76 -4.88 -0.72 c-1.72 0 -3.48 -0.08 -5.2 0.08 c-0.48 0.04 -0.72 0.28 -0.8 0.72 c-0.08 0.48 -0.16 0.96 -0.16 1.4 c0.08 2.44 0 9.68 0.08 10.88 c0.04 1.08 -0.08 2.4 -0.08 3.48 c0.04 2.68 0 5.4 0 8.08 c0 1.12 -0.04 2.2 -0.04 3.32 c0 1.2 -0.44 1.72 2.84 1.72 c2.92 0 5.96 -0.24 8.72 -1.28 c2.56 -0.92 4.16 -3.28 5.28 -5.68 z M148.2 28.48 l0 -4.8 c0 -3.04 0.08 -5 -0.04 -7.56 l0 -0.48 c0.04 -0.84 0.16 -0.88 1.04 -0.88 c1.16 -0.04 2 0.24 3 0.64 s1.56 1.28 2.08 2.12 c1 1.64 1.4 3.44 1.48 5.32 c0.04 1.08 0.08 2.16 0.08 3.24 c0 5.12 -3 8.68 -5.64 8.68 c-1.76 0 -2.04 0.12 -2.04 -1.04 c0 -1.2 0.08 -2.4 0.08 -3.6 c-0.04 -0.52 -0.04 -1.08 -0.04 -1.64 z M168.92000000000002 39.68 c0.12 0.04 0.48 0.04 0.84 0.04 c0.8 0 1.04 -2.88 1.12 -3.48 c0.04 -0.48 0.16 -0.52 0.56 -0.6 c2 -0.24 3 -0.08 5 -0.04 c0.44 0 0.68 0.2 0.8 0.56 l0.28 0.92 c0.24 0.68 0.44 1.52 0.68 2.2 c0.16 0.48 0.2 0.44 0.68 0.44 c0.64 0 2.96 0 3.64 -0.04 c0.92 0 0.28 -1.88 0.16 -2.2 c-0.36 -1.12 -0.44 -2.28 -0.8 -3.4 c-0.16 -0.48 -4.72 -22.12 -4.92 -23.32 c-0.28 -0.72 -0.04 -0.76 -0.68 -0.76 c-1.36 0 -2.8 0.08 -4.2 0 c-0.56 0 -0.52 0.16 -0.6 0.76 c-0.08 0.56 -1.52 6.92 -2.08 9.56 c-0.72 3.32 -1.36 6.52 -2.16 9.8 c-0.28 1.16 -2.2 9.52 -1.96 9.56 c0.12 0.08 0.32 0.04 0.48 0.04 c1 0 1.92 0 3.16 -0.04 z M174.16 30.6 l-0.84 0 c-1.12 0 -1.16 0 -0.88 -1.16 c0.2 -0.88 1.28 -5.64 1.52 -6.8 c0.04 -0.08 0.12 -0.16 0.16 -0.16 c0.08 0 0.16 0.08 0.2 0.12 c0.16 0.48 0.32 1.68 0.48 2.16 c0.36 1.52 0.6 2.8 0.96 4.44 c0.36 1.44 0.2 1.44 -0.52 1.44 c-0.36 0 -0.72 -0.04 -1.08 -0.04 z M187 13.920000000000002 c-0.04 2.48 0.2 20.6 0.16 21.92 c0 1.24 0 2.48 0.04 3.72 c0 0.2 0.12 0.4 0.32 0.4 c2.8 0.12 5.56 -0.12 8.36 -0.08 c0.92 0.04 1.84 0 2.72 0 c0.88 -0.04 0.96 -0.4 0.92 -1.12 c-0.04 -1.12 -0.04 -2.12 -0.04 -3.2 c-0.04 -0.56 -0.36 -0.76 -0.84 -0.76 c-1.64 0.04 -3.28 -0.04 -4.92 0.04 c-0.28 0.04 -0.56 0.04 -0.84 0.04 c-0.48 -0.04 -0.6 -0.16 -0.64 -0.68 l0 -0.6 c-0.12 -3.32 0.12 -6.76 0.12 -10.08 c-0.04 -2.8 0 -5.32 -0.04 -7.8 c0 -1.08 0 -2.16 -0.04 -3.2 c-0.04 -0.64 0 -1.32 -0.16 -1.96 c-0.08 -0.24 -0.2 -0.56 -0.48 -0.56 l-3.76 0 c-0.64 0 -0.84 0.44 -0.88 1.08 l0 2.84 z M203.52 13.920000000000002 c-0.04 2.48 0.2 20.6 0.16 21.92 c0 1.24 0 2.48 0.04 3.72 c0 0.2 0.12 0.4 0.32 0.4 c2.8 0.12 5.56 -0.12 8.36 -0.08 c0.92 0.04 1.84 0 2.72 0 c0.88 -0.04 0.96 -0.4 0.92 -1.12 c-0.04 -1.12 -0.04 -2.12 -0.04 -3.2 c-0.04 -0.56 -0.36 -0.76 -0.84 -0.76 c-1.64 0.04 -3.28 -0.04 -4.92 0.04 c-0.28 0.04 -0.56 0.04 -0.84 0.04 c-0.48 -0.04 -0.6 -0.16 -0.64 -0.68 l0 -0.6 c-0.12 -3.32 0.12 -6.76 0.12 -10.08 c-0.04 -2.8 0 -5.32 -0.04 -7.8 c0 -1.08 0 -2.16 -0.04 -3.2 c-0.04 -0.64 0 -1.32 -0.16 -1.96 c-0.08 -0.24 -0.2 -0.56 -0.48 -0.56 l-3.76 0 c-0.64 0 -0.84 0.44 -0.88 1.08 l0 2.84 z"></path></g>
			</g>
		</svg>
	